<svg width="130" height="94" viewBox="0 0 130 94" fill="none" xmlns="http://www.w3.org/2000/svg">
<path d="M38.2192 0.740208C38.033 0.926342 38.0795 1.31191 38.3655 1.9102C38.6381 2.48854 39.4628 3.35274 39.9217 3.55882C40.1079 3.64524 40.314 3.77155 40.3806 3.85131C40.4936 3.97762 40.5003 4.0308 40.4338 4.3233C40.3939 4.50278 40.3739 4.73545 40.3872 4.83517C40.4205 4.99471 40.3739 5.05454 40.0813 5.28721C39.4561 5.76584 38.4652 6.80288 38.2657 7.18179C38.0928 7.49423 38.0729 7.60724 38.0729 8.07258L38.0795 8.60439L37.5342 9.27581C37.2283 9.64143 36.5898 10.4059 36.1043 10.971C35.3262 11.8883 35.1932 12.008 34.9472 12.0745C33.9629 12.3271 33.4841 12.9653 33.4841 13.9956C33.4841 14.6405 33.5639 14.9463 33.8498 15.4249C34.1026 15.8437 34.4683 16.1162 34.9339 16.2359C35.1201 16.2824 35.426 16.4154 35.6255 16.5351C36.2373 16.9007 37.0088 16.914 37.7137 16.5683L38.1061 16.3755L38.5118 16.5018C39.0039 16.6547 39.8086 16.7212 40.2209 16.6414C40.4803 16.5882 40.5734 16.6082 40.9192 16.7677C41.9301 17.2331 43.2269 17.3727 43.9452 17.0935C44.1447 17.0203 44.3109 16.9539 44.3176 16.9539C44.3176 16.9539 45.0092 17.8247 45.8472 18.8883L47.3701 20.8161L47.543 21.4942C47.8689 22.7373 48.3344 23.7744 49.5781 26.0013C49.8308 26.4467 50.0037 26.8522 50.0636 27.1248C50.2498 28.0156 50.855 28.9662 51.5998 29.5512C52.2781 30.083 53.309 30.5084 53.9341 30.5151C54.0472 30.5151 54.1602 30.5816 54.2467 30.6879C54.3797 30.8541 54.3863 30.9472 54.3863 32.3698C54.3863 34.0383 54.4395 34.3973 54.792 35.1485C54.9982 35.5939 54.9982 35.5939 54.9317 36.1988C54.8918 36.5246 54.7587 37.1694 54.6324 37.6281C54.506 38.0868 54.3597 38.6984 54.3198 38.9908L54.2334 39.5227L53.5883 40.2539C52.4577 41.5369 52.0587 42.0621 52.0587 42.2814C52.0587 42.5274 52.1651 42.7667 52.3313 42.8664C52.6373 43.0592 54.6257 43.1523 55.477 43.0127C55.8295 42.9595 55.9159 42.9063 56.2218 42.6072C56.4945 42.3413 56.581 42.2083 56.5943 42.0288C56.6142 41.8028 56.6275 41.7895 57.1662 41.5967L57.7248 41.3973L57.6783 41.1646C57.6118 40.799 57.6317 37.6613 57.7049 36.8304C57.911 34.63 58.1837 33.3071 58.4298 33.3071C58.4963 33.3071 58.8222 34.271 58.9153 34.7363C58.9884 35.1153 59.1347 35.4543 59.4606 35.9662C59.587 36.1722 59.6069 36.3185 59.6468 37.3954C59.6668 38.0535 59.6668 39.0108 59.6468 39.5227L59.6003 40.4533L59.3076 40.932C59.1547 41.1912 58.7689 41.6765 58.463 42.0155C58.1571 42.3479 57.8778 42.7002 57.8379 42.7867C57.7714 42.9794 57.7647 43.6243 57.8379 43.8769C57.8844 44.0298 57.911 44.0431 58.3167 44.0431C58.5495 44.0497 58.9485 44.0896 59.2012 44.1361C59.6734 44.2292 60.099 44.2159 61.3028 44.0564C62.1407 43.95 62.4799 43.704 62.8723 42.9329C63.0186 42.6404 63.0319 42.5806 62.9654 42.195C62.8723 41.6167 62.8789 41.5901 63.0917 41.497C63.391 41.3641 63.4641 41.1048 63.3777 40.4799C63.3311 40.1874 63.238 39.8085 63.1649 39.649C62.992 39.2568 62.9321 38.8845 62.7326 37.0963C62.5331 35.2947 62.5331 35.102 62.6927 34.4505C62.9055 33.6062 62.9255 33.2207 62.7792 32.3764C62.706 31.9576 62.6062 31.3261 62.5663 30.9738C62.4799 30.309 62.4932 28.5008 62.5863 28.4144C62.6129 28.3878 63.4176 28.3679 64.3819 28.3679C65.7386 28.3745 66.51 28.4144 67.8534 28.5474C68.8044 28.6404 70.1944 28.7667 70.9459 28.8199C72.2427 28.9196 72.8146 28.9928 74.0383 29.2188C74.7366 29.3451 75.8339 29.3451 76.5655 29.2188C76.8847 29.159 77.5032 28.9795 77.9421 28.8199C78.381 28.6537 79.0195 28.4676 79.352 28.4144C80.0104 28.3014 80.416 28.1818 80.8084 27.9757L81.0611 27.8494L81.3072 28.0422C81.4402 28.1485 81.8725 28.4477 82.2582 28.7069C83.2824 29.3916 83.6548 29.9367 83.555 30.6347C83.422 31.5588 83.422 31.6053 83.6082 31.7848C83.7546 31.9377 83.8543 31.9643 84.2999 31.9975C84.6457 32.0175 84.8785 31.9975 85.0248 31.9377C85.2775 31.838 85.5103 31.4989 85.5169 31.2131C85.5169 31.1001 85.5435 30.9538 85.5701 30.8874C85.6167 30.7677 85.6233 30.7677 85.6632 30.9206C85.6898 31.007 85.7098 31.2862 85.7098 31.5322C85.7098 32.2834 85.9159 32.516 86.6541 32.6024L87.0332 32.649L87.0731 33.0146C87.0997 33.2074 87.0931 33.8123 87.0532 34.3508C86.9867 35.3346 86.9867 35.3346 86.6408 36.0991C86.4546 36.5179 86.0689 37.4154 85.7896 38.0934L85.2842 39.3232L84.6923 39.9215C84.373 40.2539 83.994 40.7126 83.861 40.9519C83.6548 41.3042 83.555 41.4039 83.2491 41.5635C82.8368 41.7696 82.5841 42.0355 82.338 42.5075C82.2183 42.7401 82.1917 42.8465 82.2516 42.8797C82.2981 42.9063 82.6639 43.0127 83.0762 43.119C83.7612 43.2985 83.9009 43.3118 85.078 43.3118C86.5211 43.3118 86.6741 43.2719 86.9069 42.8133C86.9933 42.6471 87.0997 42.5341 87.2061 42.5075C87.4655 42.441 87.7049 42.1152 87.7049 41.8161C87.7049 41.4505 87.7581 41.3508 87.9643 41.3508C88.2236 41.3508 88.5296 41.1314 88.6626 40.8522C88.7557 40.6594 88.769 40.5198 88.7357 40.214C88.6958 39.8617 88.7091 39.7952 88.8887 39.4761C89.2944 38.7715 89.6601 37.8142 90.4648 35.4011C91.2762 32.9614 91.7284 31.7781 91.8681 31.7316C91.9479 31.705 92.0144 31.8712 92.4533 33.2406C92.7858 34.271 92.8856 34.8095 92.8922 35.5075C92.8922 35.9595 92.4799 39.7952 92.3602 40.4201C92.1341 41.61 91.7816 42.4144 91.1897 43.0659C90.9902 43.2852 90.8106 43.5578 90.7907 43.6642C90.7441 43.8902 90.8971 44.2359 91.09 44.3422C91.1698 44.3821 91.8415 44.4087 92.7991 44.4087C94.3686 44.4087 94.3753 44.4087 94.6679 44.2425C94.9805 44.0564 95.1401 43.7971 95.313 43.1988C95.4194 42.8598 95.4194 42.8066 95.313 42.5407C95.2531 42.3812 95.1866 42.1285 95.1733 41.9889C95.1401 41.7363 95.1467 41.7297 95.2465 41.836C95.5058 42.0953 96.1376 41.9025 96.3438 41.497L96.4768 41.2378L96.2706 40.8788L96.0645 40.5198L96.1443 39.2235C96.1842 38.5122 96.2507 37.2691 96.2839 36.4647C96.3704 34.6765 96.5234 32.9548 96.6564 32.3764C96.7096 32.1371 96.8492 31.6585 96.9623 31.3128C97.2283 30.4951 97.2549 29.5844 97.0354 28.7535C96.8426 28.0554 96.7761 27.5901 96.6564 26.1941C96.3637 22.8703 96.2573 19.819 96.3504 17.2331C96.4236 15.3252 96.4968 14.5673 96.7561 13.1647C97.062 11.4695 96.7229 9.75444 95.8517 8.5911C95.1534 7.66043 93.4908 6.72975 92.1607 6.52367C91.4624 6.41731 86.8869 6.35083 86.3748 6.4439C86.1354 6.49044 85.5103 6.66993 84.9782 6.84941C83.974 7.18179 83.8277 7.21503 80.9215 7.78673C78.9463 8.17894 79.1525 8.16565 75.3684 8.11246C73.8787 8.09917 73.2935 8.11246 72.4422 8.21218C71.0656 8.36507 70.9725 8.36508 70.5069 8.13906L70.1146 7.95292L67.6207 7.90639C64.894 7.85321 64.4418 7.81997 62.4666 7.48094C60.3717 7.12196 59.9926 7.10202 56.1154 7.14856C51.5399 7.20839 51.2606 7.18179 48.8997 6.39737C47.6162 5.97192 47.5563 5.94533 47.2039 5.61295C47.0044 5.42681 46.7184 5.16755 46.5787 5.04124L46.3127 4.80858L46.326 4.21693C46.346 3.44581 46.2662 3.30621 45.5878 2.96053C44.956 2.64144 44.4307 2.18275 44.0782 1.63765C43.6792 1.02606 43.3001 0.899754 42.941 1.25873C42.7148 1.48475 42.6882 1.75066 42.8479 2.19605C42.9676 2.54173 42.9676 2.52843 42.8545 2.52843C42.808 2.52843 42.6084 2.59491 42.4222 2.67468L42.0764 2.81428L41.6641 2.6215C40.8394 2.22929 39.8219 1.54457 38.9574 0.806686C38.678 0.567371 38.412 0.547428 38.2192 0.740208ZM45.1156 3.65854C45.2952 3.74495 45.4615 3.84467 45.4881 3.88456C45.5213 3.92444 45.5213 4.12387 45.5014 4.3233C45.4415 4.84846 45.5612 5.20744 45.9004 5.53982C46.6585 6.27771 46.9911 6.57685 47.1906 6.67657C47.5497 6.86271 49.9372 7.62719 50.5025 7.7402C51.6464 7.96622 52.1983 7.98616 56.2484 7.96622C60.6577 7.94627 60.2387 7.91969 62.7991 8.37173C64.1624 8.61104 64.7942 8.65757 67.2549 8.69081L69.7155 8.72405L70.1478 8.91018C70.7596 9.17609 71.1055 9.20268 72.0764 9.06973C72.7747 8.97001 73.4198 8.95007 76.1664 8.94342L79.4251 8.93678L80.9547 8.63099C81.7993 8.45815 82.8302 8.25206 83.2491 8.17894C83.6681 8.09917 84.4928 7.8798 85.0846 7.68037C85.6699 7.48758 86.3416 7.28815 86.5743 7.24827C87.0665 7.16185 90.9969 7.21503 91.8481 7.3214C92.8124 7.4477 93.8299 7.89309 94.6745 8.5778C95.4061 9.16945 95.865 10.1201 96.0179 11.3632C96.0977 12.0346 96.0911 12.121 95.845 13.5303C95.6455 14.7269 95.5723 15.6974 95.5125 17.951C95.426 21.5075 95.7719 26.9719 96.1908 28.8332C96.4236 29.8636 96.417 30.2359 96.131 31.1466C96.0046 31.5455 95.865 32.044 95.8251 32.2435C95.6987 32.9016 95.559 34.5834 95.4526 36.8104C95.3928 38.007 95.3196 39.3166 95.2864 39.7221C95.2465 40.121 95.2199 40.5198 95.2199 40.5996C95.2199 40.7126 95.18 40.7525 95.0603 40.7525C94.8475 40.7525 94.5615 40.9918 94.4484 41.2577C94.3221 41.5568 94.3287 42.2947 94.4617 42.6005C94.5482 42.8066 94.5482 42.893 94.4817 43.1323C94.3553 43.591 94.2689 43.6176 92.9986 43.5977L91.8947 43.5777L92.1341 43.2454C92.6063 42.5872 92.9255 41.8095 93.1183 40.8389C93.2913 39.988 93.6903 36.2587 93.6903 35.5008C93.6903 35.1153 93.657 34.61 93.6171 34.3707C93.5506 33.9253 92.8856 31.7648 92.706 31.4125C92.6262 31.253 92.1474 30.4951 92.0543 30.3888C92.041 30.3755 91.8947 30.4752 91.7218 30.6148C91.0567 31.1599 90.7907 31.7582 89.6003 35.3346C88.8288 37.6613 88.5362 38.4125 88.1172 39.157C87.8978 39.5493 87.8778 39.6357 87.8845 40.0678C87.8911 40.6262 87.8579 40.6328 87.4721 40.1409L87.2128 39.8019L87.0931 40.327C87.0266 40.6129 86.9601 41.0516 86.9335 41.2909C86.8936 41.7031 86.8803 41.7363 86.6608 41.8493C86.5344 41.9225 86.3682 42.0887 86.2884 42.2283C86.162 42.441 86.0955 42.4809 85.8494 42.5208C85.497 42.5739 84.0472 42.5075 83.7147 42.4277L83.4819 42.3679L83.7147 42.2615C84.1004 42.0953 84.2999 41.8959 84.526 41.4638C84.6657 41.2045 84.925 40.8788 85.2309 40.5863C85.497 40.3337 85.8029 39.988 85.9093 39.8218C86.0157 39.6556 86.3748 38.8645 86.7073 38.0602C87.0399 37.2625 87.4189 36.3783 87.5519 36.0991C87.8446 35.4676 87.9377 34.6233 87.8778 33.008C87.8446 32.0108 87.6251 29.95 87.5453 29.8703C87.532 29.8503 87.3524 30.1761 87.1463 30.5816C86.8603 31.1533 86.7738 31.3926 86.7738 31.6252C86.7738 31.8712 86.7539 31.9177 86.6608 31.8978C86.561 31.8779 86.5344 31.7715 86.5012 31.2131C86.4613 30.6081 86.2285 29.6708 86.0556 29.3983C86.009 29.3318 85.9026 29.385 85.6034 29.6044C85.1445 29.9434 84.8519 30.3356 84.7455 30.761L84.6657 31.0668L84.5327 30.8408C84.4529 30.7079 84.3797 30.442 84.3597 30.1893C84.2932 29.365 83.8676 28.7933 82.7703 28.0488C82.338 27.7563 81.806 27.3641 81.5865 27.1846L81.1875 26.8522L80.5956 27.1514C80.0237 27.4306 79.8175 27.497 78.8599 27.6566C78.6204 27.7031 78.135 27.8494 77.7825 27.9956C77.0177 28.3014 75.9935 28.5208 75.3484 28.5208C75.0891 28.5208 74.5304 28.461 74.0915 28.3812C73.6592 28.3081 73.1405 28.2216 72.941 28.1818C72.7415 28.1485 71.9634 28.0754 71.2119 28.0222C70.4604 27.9624 69.1037 27.8494 68.1859 27.7563C66.0046 27.5436 64.7477 27.497 63.1516 27.5569L61.8481 27.6034L61.7616 28.1818C61.6286 29.0526 61.6619 30.5816 61.8348 31.6784C62.0609 33.1409 62.0742 33.46 61.9079 34.1514C61.7284 34.9358 61.7284 35.5008 61.9345 37.3755C62.1341 39.1637 62.1873 39.4628 62.3668 39.8683C62.44 40.0345 62.4998 40.234 62.4998 40.3071C62.4998 40.44 62.4998 40.44 62.3469 40.3004C62.2604 40.2207 62.1673 40.1542 62.1407 40.1542C62.1141 40.1542 62.0942 40.686 62.1008 41.3308C62.1075 41.9823 62.1141 42.554 62.1075 42.5939C62.1075 42.6404 61.9944 42.8 61.8614 42.9462C61.6619 43.1656 61.5754 43.2121 61.3759 43.2121C61.2429 43.2121 60.8372 43.2586 60.4648 43.3251C59.8397 43.4248 59.7665 43.4248 59.3342 43.3251C59.0815 43.2586 58.8089 43.2121 58.7224 43.2121C58.5894 43.2121 58.5827 43.1988 58.6492 43.0659C58.6891 42.9861 58.8754 42.7734 59.0616 42.5872C59.5005 42.1485 59.9328 41.5568 60.2254 40.9851L60.4715 40.5198L60.4648 38.3926C60.4648 37.0364 60.4316 36.1722 60.385 36.006C60.3451 35.8664 60.1921 35.554 60.0458 35.308C59.8596 35.0023 59.7399 34.7031 59.6668 34.3375C59.6069 34.045 59.4739 33.5863 59.3675 33.3204C59.1015 32.6556 58.8887 31.7981 58.7024 30.6946C58.6226 30.1893 58.5362 29.8038 58.5096 29.8304C58.4896 29.857 58.33 30.2159 58.1571 30.6281C57.798 31.4856 57.645 32.0573 57.645 32.5626C57.645 32.8152 57.5985 33.0013 57.4854 33.1941C57.1196 33.8323 56.7206 37.7344 56.8004 39.8351C56.8204 40.3403 56.827 40.7525 56.8137 40.7525C56.8004 40.7525 56.6475 40.5398 56.4746 40.2805C56.0888 39.7221 56.1088 39.7021 55.9159 40.9519C55.7962 41.7563 55.7563 41.8693 55.59 42.0355C55.4105 42.2216 55.3839 42.2283 54.5127 42.2548C54.0206 42.2748 53.4952 42.2681 53.3356 42.2349L53.0496 42.1817L53.4885 41.6499C53.7346 41.3574 54.1735 40.8522 54.4661 40.5331L54.9982 39.9481L55.1245 39.2036C55.1977 38.7914 55.344 38.1466 55.4504 37.761C55.8228 36.4381 55.8893 35.4609 55.6433 35.0023C55.2509 34.2577 55.2309 34.1248 55.191 32.1969L55.1511 30.3888L54.8319 30.063C54.5193 29.7506 54.4927 29.7307 54.0538 29.6908C53.1759 29.611 52.2116 29.1124 51.6264 28.441C51.3072 28.0754 50.9481 27.3309 50.8483 26.8256C50.8018 26.5597 50.6355 26.1808 50.3429 25.6623C49.1458 23.5417 48.5805 22.272 48.2812 20.989L48.1615 20.4771L46.3726 18.2103C45.3817 16.9605 44.557 15.9102 44.5371 15.8769C44.5171 15.8437 44.3442 15.9235 44.1513 16.0498C43.9585 16.1827 43.6925 16.3157 43.5594 16.3556C42.941 16.5218 42.0033 16.3689 41.1786 15.9567C40.6931 15.7107 40.6399 15.6974 40.3872 15.7706C39.7621 15.9434 38.7845 15.8038 38.1593 15.4648C38.013 15.3784 37.9731 15.385 37.7603 15.5578C37.0753 16.0963 36.397 16.1495 35.8782 15.6974C35.7319 15.5711 35.559 15.498 35.3329 15.4648C34.9272 15.4116 34.7144 15.272 34.5082 14.8997C34.322 14.5607 34.2489 13.8959 34.3619 13.5503C34.4949 13.1447 34.9605 12.8323 35.4326 12.8323C35.5723 12.8323 35.7386 12.6794 36.3105 12.0146C37.7204 10.3727 38.7645 9.09632 38.8244 8.93678C38.8643 8.84371 38.8909 8.53791 38.8909 8.25207C38.8909 7.80003 38.9175 7.70031 39.0771 7.44105C39.2699 7.14191 40.0414 6.38408 40.6998 5.85226C41.1919 5.4534 41.2385 5.36698 41.2717 4.82187C41.3316 3.7516 41.3249 3.69842 41.1653 3.4724C41.0788 3.35939 41.0256 3.25967 41.0389 3.25967C41.0522 3.25967 41.3449 3.39263 41.6907 3.55217L42.3158 3.85131L42.4422 3.67848C42.5885 3.48569 42.9277 3.32615 43.1804 3.32615C43.2668 3.32615 43.5461 3.45246 43.7922 3.59871C44.0449 3.7516 44.2644 3.88456 44.2976 3.9045C44.3242 3.91779 44.2577 3.69177 44.1513 3.39928L43.9585 2.86746L44.3708 3.18655C44.6036 3.35939 44.9361 3.57211 45.1156 3.65854Z" fill="white"/>
<path d="M4.86194 74.4037V93.3901H8.35068H11.8394V86.6739V79.9576L14.4409 79.9748L17.0424 80.0006L20.2469 86.6739L23.4513 93.3471L27.5172 93.3729C30.7648 93.3901 31.5745 93.3729 31.5401 93.2868C31.5228 93.2265 29.8517 89.9803 27.8274 86.0797C25.8116 82.1705 24.1663 78.976 24.1836 78.9674C24.1922 78.9587 24.5023 78.8468 24.8727 78.7176C27.5689 77.7446 29.8086 75.2303 30.782 72.0789C31.2472 70.5462 31.3506 69.7884 31.3506 67.6444C31.3506 65.9739 31.3161 65.5692 31.1524 64.7254C30.894 63.4682 30.6011 62.5469 30.136 61.5395C28.6715 58.4052 26.1476 56.4075 22.6933 55.6498C21.9008 55.4776 21.5993 55.469 13.3728 55.4432L4.86194 55.4087V74.4037ZM20.5742 62.7363C20.9446 62.8311 21.4701 63.0291 21.7457 63.1755C22.4004 63.5199 23.2015 64.3207 23.5461 64.9751C24.3645 66.5078 24.3645 68.7121 23.5461 70.3223C23.1757 71.0628 22.297 71.9325 21.5735 72.2769C20.5139 72.7763 20.0746 72.8194 15.7589 72.7935L11.8825 72.7677L11.8567 67.6616L11.8394 62.5641H15.8709C19.6094 62.5641 19.9626 62.5727 20.5742 62.7363Z" fill="white"/>
<path d="M102.547 74.4037V93.3901H114.176H125.805V89.8598V86.3294L117.69 86.3122L109.567 86.2864L109.541 81.9638L109.524 77.6327H116.631H123.738V74.0593V70.4859H116.631H109.524V66.525V62.5641H117.492H125.46V58.9907V55.4173H114.004H102.547V74.4037Z" fill="white"/>
<path d="M35.0977 81.5075V93.3901H37.6389H40.1801V81.5075V69.6248H37.6389H35.0977V81.5075Z" fill="white"/>
<path d="M43.9703 81.5075V93.3901H49.9916C56.7623 93.3901 56.7451 93.3901 57.9856 92.7874C59.5706 92.0124 60.6129 90.54 60.9919 88.5854C61.1556 87.7416 61.147 86.2261 60.9747 85.3995C60.811 84.5987 60.2339 83.3502 59.7428 82.7302C59.2777 82.1447 58.4852 81.5591 57.8305 81.3267L57.3223 81.1372L57.796 80.9478C59.0968 80.4139 60.1219 79.1137 60.5526 77.4174C60.7852 76.5478 60.7679 74.8084 60.5267 73.9215C59.9151 71.6656 58.287 70.1415 56.0732 69.754C55.4444 69.6507 54.3418 69.6248 49.647 69.6248H43.9703V81.5075ZM54.6432 74.2401C55.4616 74.4812 56.0129 75.1442 56.1938 76.1C56.4092 77.2969 55.8665 78.4507 54.8672 78.8985C54.5571 79.0362 54.1867 79.0535 51.4474 79.0793L48.3635 79.1051V76.608V74.1024H51.2751C53.6612 74.1024 54.2728 74.1282 54.6432 74.2401ZM55.0137 83.7118C55.944 84.0218 56.547 84.9173 56.6159 86.0625C56.6848 87.268 56.2713 88.1377 55.4099 88.6199L54.9534 88.8696L51.6627 88.8954L48.3635 88.9212V86.2433V83.574H51.4905C54.0919 83.574 54.6863 83.5999 55.0137 83.7118Z" fill="white"/>
<path d="M64.1274 78.9243V88.2238H71.3634H78.5993V86.2864V84.349L73.5427 84.3318L68.4776 84.3059V82.6269V80.9478L72.5521 80.922L76.618 80.9047V78.7521V76.5994L72.5521 76.5822L68.4776 76.5564L68.4518 75.0667L68.4345 73.5857H73.3446H78.2547V71.6053V69.6248H71.1911H64.1274V78.9243Z" fill="white"/>
<path d="M79.7105 69.7712C79.7535 69.8573 81.5367 73.026 83.673 76.8061L87.558 83.6946V88.5424V93.3901H90.4868H93.4156V88.5251V83.6601L97.3006 76.7544C99.4369 72.9485 101.211 69.7884 101.229 69.7282C101.263 69.6421 100.617 69.6248 98.0587 69.6421L94.837 69.6679L92.6834 73.9474C91.5033 76.3067 90.5127 78.2355 90.4868 78.2355C90.461 78.2355 89.4617 76.2981 88.2643 73.9301L86.085 69.6248H82.8546C79.8052 69.6248 79.6329 69.6334 79.7105 69.7712Z" fill="white"/>
<path d="M64.0413 91.6249V93.304H71.2342H78.427V91.6249V89.9458H71.2342H64.0413V91.6249Z" fill="white"/>
</svg>
