<svg width="25" height="24" viewBox="0 0 25 24" fill="none" xmlns="http://www.w3.org/2000/svg">
<mask id="mask0_46_1651" style="mask-type:alpha" maskUnits="userSpaceOnUse" x="0" y="0" width="25" height="24">
<rect x="0.333435" width="24" height="24" fill="#D9D9D9"/>
</mask>
<g mask="url(#mask0_46_1651)">
<path d="M12.3334 22C10.9501 22 9.6501 21.7375 8.43343 21.2125C7.21677 20.6875 6.15844 19.975 5.25844 19.075C4.35843 18.175 3.64594 17.1167 3.12094 15.9C2.59594 14.6833 2.33344 13.3833 2.33344 12C2.33344 10.6167 2.59594 9.31667 3.12094 8.1C3.64594 6.88333 4.35843 5.825 5.25844 4.925C6.15844 4.025 7.21677 3.3125 8.43343 2.7875C9.6501 2.2625 10.9501 2 12.3334 2C13.7168 2 15.0168 2.2625 16.2334 2.7875C17.4501 3.3125 18.5084 4.025 19.4084 4.925C20.3084 5.825 21.0209 6.88333 21.5459 8.1C22.0709 9.31667 22.3334 10.6167 22.3334 12V20C22.3334 20.55 22.1376 21.0208 21.7459 21.4125C21.3543 21.8042 20.8834 22 20.3334 22H12.3334ZM12.3334 20C14.5668 20 16.4584 19.225 18.0084 17.675C19.5584 16.125 20.3334 14.2333 20.3334 12C20.3334 9.76667 19.5584 7.875 18.0084 6.325C16.4584 4.775 14.5668 4 12.3334 4C10.1001 4 8.20844 4.775 6.65844 6.325C5.10844 7.875 4.33344 9.76667 4.33344 12C4.33344 12.3833 4.35844 12.7583 4.40844 13.125C4.45844 13.4917 4.53344 13.85 4.63344 14.2L7.68343 11.15C7.76677 11.0667 7.86677 11 7.98344 10.95C8.1001 10.9 8.2251 10.8667 8.35844 10.85C8.4751 10.85 8.59177 10.8708 8.70844 10.9125C8.8251 10.9542 8.93344 11.0167 9.03344 11.1L11.6334 13.275L14.9084 10H14.3334C14.0501 10 13.8126 9.90417 13.6209 9.7125C13.4293 9.52083 13.3334 9.28333 13.3334 9C13.3334 8.71667 13.4293 8.47917 13.6209 8.2875C13.8126 8.09583 14.0501 8 14.3334 8H17.3334C17.6168 8 17.8543 8.09583 18.0459 8.2875C18.2376 8.47917 18.3334 8.71667 18.3334 9V12C18.3334 12.2833 18.2376 12.5208 18.0459 12.7125C17.8543 12.9042 17.6168 13 17.3334 13C17.0501 13 16.8126 12.9042 16.6209 12.7125C16.4293 12.5208 16.3334 12.2833 16.3334 12V11.425L12.3834 15.35C12.3001 15.4333 12.2001 15.5 12.0834 15.55C11.9668 15.6 11.8501 15.625 11.7334 15.625C11.6001 15.6417 11.4751 15.6292 11.3584 15.5875C11.2418 15.5458 11.1334 15.4833 11.0334 15.4L8.45844 13.2L5.50844 16.15C6.20844 17.3 7.15427 18.2292 8.34594 18.9375C9.5376 19.6458 10.8668 20 12.3334 20ZM19.8334 20.5C20.1168 20.5 20.3543 20.4042 20.5459 20.2125C20.7376 20.0208 20.8334 19.7833 20.8334 19.5C20.8334 19.2167 20.7376 18.9792 20.5459 18.7875C20.3543 18.5958 20.1168 18.5 19.8334 18.5C19.5501 18.5 19.3126 18.5958 19.1209 18.7875C18.9293 18.9792 18.8334 19.2167 18.8334 19.5C18.8334 19.7833 18.9293 20.0208 19.1209 20.2125C19.3126 20.4042 19.5501 20.5 19.8334 20.5Z" fill="#FEFEFE" fill-opacity="0.75"/>
</g>
</svg>
