<svg width="32" height="26" viewBox="0 0 32 26" fill="none" xmlns="http://www.w3.org/2000/svg">
<path d="M27.1339 14.6667C26.6903 14.6667 26.3184 14.507 26.0183 14.1875C25.7182 13.8681 25.5682 13.4722 25.5682 13C25.5682 12.5278 25.7182 12.132 26.0183 11.8125C26.3184 11.4931 26.6903 11.3333 27.1339 11.3333H30.2652C30.7088 11.3333 31.0806 11.4931 31.3807 11.8125C31.6808 12.132 31.8308 12.5278 31.8308 13C31.8308 13.4722 31.6808 13.8681 31.3807 14.1875C31.0806 14.507 30.7088 14.6667 30.2652 14.6667H27.1339ZM26.1945 25.3333L23.6894 23.3333C23.3241 23.0556 23.1153 22.6945 23.0632 22.25C23.011 21.8056 23.1153 21.3889 23.3763 21C23.6372 20.6111 23.9765 20.3889 24.394 20.3333C24.8115 20.2778 25.2029 20.3889 25.5682 20.6667L28.0733 22.6667C28.4386 22.9445 28.6473 23.3056 28.6995 23.75C28.7517 24.1945 28.6473 24.6111 28.3864 25C28.1254 25.3889 27.7862 25.6111 27.3687 25.6667C26.9512 25.7222 26.5598 25.6111 26.1945 25.3333ZM25.5682 5.33335C25.2029 5.61112 24.8115 5.72224 24.394 5.66668C23.9765 5.61112 23.6372 5.3889 23.3763 5.00001C23.1153 4.61112 23.011 4.19446 23.0632 3.75001C23.1153 3.30557 23.3241 2.94446 23.6894 2.66668L26.1945 0.66668C26.5598 0.388902 26.9512 0.277791 27.3687 0.333347C27.7862 0.388902 28.1254 0.611125 28.3864 1.00001C28.6473 1.3889 28.7517 1.80557 28.6995 2.25001C28.6473 2.69446 28.4386 3.05557 28.0733 3.33335L25.5682 5.33335ZM5.21467 24.6667V18H3.64901C2.7879 18 2.05074 17.6736 1.43752 17.0208C0.824308 16.3681 0.5177 15.5833 0.5177 14.6667V11.3333C0.5177 10.4167 0.824308 9.63196 1.43752 8.97918C2.05074 8.3264 2.7879 8.00001 3.64901 8.00001H9.91164L15.3523 4.50001C15.8742 4.16668 16.4026 4.16668 16.9375 4.50001C17.4725 4.83335 17.7399 5.31946 17.7399 5.95835V20.0417C17.7399 20.6806 17.4725 21.1667 16.9375 21.5C16.4026 21.8333 15.8742 21.8333 15.3523 21.5L9.91164 18H8.34598V24.6667H5.21467ZM19.3056 18.5833V7.41668C20.0101 8.08335 20.5777 8.89585 21.0082 9.85418C21.4388 10.8125 21.6541 11.8611 21.6541 13C21.6541 14.1389 21.4388 15.1875 21.0082 16.1458C20.5777 17.1042 20.0101 17.9167 19.3056 18.5833Z" fill="black"/>
</svg>
