<svg width="25" height="24" viewBox="0 0 25 24" fill="none" xmlns="http://www.w3.org/2000/svg">
<mask id="mask0_46_1654" style="mask-type:alpha" maskUnits="userSpaceOnUse" x="0" y="0" width="25" height="24">
<rect x="0.333435" width="24" height="24" fill="#D9D9D9"/>
</mask>
<g mask="url(#mask0_46_1654)">
<path d="M19.2028 13.0001C18.9194 13.0001 18.6819 12.9042 18.4903 12.7126C18.2986 12.5209 18.2028 12.2834 18.2028 12.0001C18.2028 11.7167 18.2986 11.4792 18.4903 11.2876C18.6819 11.0959 18.9194 11.0001 19.2028 11.0001H21.2028C21.4861 11.0001 21.7236 11.0959 21.9153 11.2876C22.1069 11.4792 22.2028 11.7167 22.2028 12.0001C22.2028 12.2834 22.1069 12.5209 21.9153 12.7126C21.7236 12.9042 21.4861 13.0001 21.2028 13.0001H19.2028ZM18.6028 19.4001L17.0028 18.2001C16.7694 18.0334 16.6361 17.8167 16.6028 17.5501C16.5694 17.2834 16.6361 17.0334 16.8028 16.8001C16.9694 16.5667 17.1861 16.4334 17.4528 16.4001C17.7194 16.3667 17.9694 16.4334 18.2028 16.6001L19.8028 17.8001C20.0361 17.9667 20.1694 18.1834 20.2028 18.4501C20.2361 18.7167 20.1694 18.9667 20.0028 19.2001C19.8361 19.4334 19.6194 19.5667 19.3528 19.6001C19.0861 19.6334 18.8361 19.5667 18.6028 19.4001ZM18.2028 7.40006C17.9694 7.56672 17.7194 7.63339 17.4528 7.60006C17.1861 7.56672 16.9694 7.43339 16.8028 7.20006C16.6361 6.96672 16.5694 6.71672 16.6028 6.45006C16.6361 6.18339 16.7694 5.96672 17.0028 5.80006L18.6028 4.60006C18.8361 4.43339 19.0861 4.36672 19.3528 4.40006C19.6194 4.43339 19.8361 4.56672 20.0028 4.80006C20.1694 5.03339 20.2361 5.28339 20.2028 5.55006C20.1694 5.81672 20.0361 6.03339 19.8028 6.20006L18.2028 7.40006ZM5.20276 19.0001V15.0001H4.20276C3.65276 15.0001 3.18193 14.8042 2.79026 14.4126C2.39859 14.0209 2.20276 13.5501 2.20276 13.0001V11.0001C2.20276 10.4501 2.39859 9.97922 2.79026 9.58756C3.18193 9.19589 3.65276 9.00006 4.20276 9.00006H8.20276L11.6778 6.90006C12.0111 6.70006 12.3486 6.70006 12.6903 6.90006C13.0319 7.10006 13.2028 7.39172 13.2028 7.77506V16.2251C13.2028 16.6084 13.0319 16.9001 12.6903 17.1001C12.3486 17.3001 12.0111 17.3001 11.6778 17.1001L8.20276 15.0001H7.20276V19.0001H5.20276ZM14.2028 15.3501V8.65006C14.6528 9.05006 15.0153 9.53756 15.2903 10.1126C15.5653 10.6876 15.7028 11.3167 15.7028 12.0001C15.7028 12.6834 15.5653 13.3126 15.2903 13.8876C15.0153 14.4626 14.6528 14.9501 14.2028 15.3501Z" fill="#E8ECEF"/>
</g>
</svg>
