<svg width="21" height="20" viewBox="0 0 21 20" fill="none" xmlns="http://www.w3.org/2000/svg">
<path d="M14.3897 9.03593L14.3899 9.03569C14.5071 8.91848 14.573 8.75951 14.573 8.59375C14.573 8.42799 14.5071 8.26902 14.3899 8.15181C14.2727 8.0346 14.1138 7.96875 13.948 7.96875C13.7822 7.96875 13.6233 8.0346 13.5061 8.15181L13.5058 8.15204L10.6667 10.9911L7.82751 8.15188C7.71023 8.0346 7.55126 7.96875 7.3855 7.96875C7.21974 7.96875 7.06077 8.0346 6.94356 8.15181C6.82635 8.26902 6.7605 8.42799 6.7605 8.59375C6.7605 8.75951 6.82635 8.91848 6.94356 9.03569L10.2248 12.3169C10.342 12.4342 10.501 12.5 10.6667 12.5C10.8325 12.5 10.9915 12.4342 11.1087 12.3169L14.3897 9.03593Z" fill="white"/>
<path d="M10.0417 3.125V11.875C10.0417 12.2202 10.3216 12.5 10.6667 12.5C11.0119 12.5 11.2917 12.2202 11.2917 11.875V3.125C11.2917 2.77982 11.0119 2.5 10.6667 2.5C10.3216 2.5 10.0417 2.77982 10.0417 3.125Z" fill="white"/>
<path d="M4.41675 16.25V11.875C4.41675 11.5298 4.13693 11.25 3.79175 11.25C3.44657 11.25 3.16675 11.5298 3.16675 11.875V16.25C3.16675 16.7678 3.53286 17.1339 3.53286 17.1339C3.89898 17.5 4.41675 17.5 4.41675 17.5H16.9167C17.4345 17.5 17.8006 17.1339 17.8006 17.1339C18.1667 16.7678 18.1667 16.25 18.1667 16.25V11.875C18.1667 11.5298 17.8869 11.25 17.5417 11.25C17.1966 11.25 16.9167 11.5298 16.9167 11.875V16.25H4.41675Z" fill="white"/>
</svg>
