<svg width="25" height="24" viewBox="0 0 25 24" fill="none" xmlns="http://www.w3.org/2000/svg">
<mask id="mask0_46_1663" style="mask-type:alpha" maskUnits="userSpaceOnUse" x="0" y="0" width="25" height="24">
<rect x="0.333435" width="24" height="24" fill="#D9D9D9"/>
</mask>
<g mask="url(#mask0_46_1663)">
<path d="M5.33344 10.725L2.83344 9.3C2.68344 9.21667 2.5626 9.09583 2.47094 8.9375C2.37927 8.77917 2.33344 8.60833 2.33344 8.425V5.575C2.33344 5.39167 2.37927 5.22083 2.47094 5.0625C2.5626 4.90417 2.68344 4.78333 2.83344 4.7L5.33344 3.275C5.48344 3.19167 5.6501 3.15 5.83344 3.15C6.01677 3.15 6.18343 3.19167 6.33344 3.275L8.83344 4.7C8.98344 4.78333 9.10427 4.90417 9.19594 5.0625C9.2876 5.22083 9.33344 5.39167 9.33344 5.575V8.425C9.33344 8.60833 9.2876 8.77917 9.19594 8.9375C9.10427 9.09583 8.98344 9.21667 8.83344 9.3L6.33344 10.725C6.18343 10.8083 6.01677 10.85 5.83344 10.85C5.6501 10.85 5.48344 10.8083 5.33344 10.725ZM16.8334 13V9.45L19.3334 10.925C19.6501 11.1083 19.8959 11.35 20.0709 11.65C20.2459 11.95 20.3334 12.2833 20.3334 12.65V17.35C20.3334 17.7167 20.2459 18.05 20.0709 18.35C19.8959 18.65 19.6501 18.8917 19.3334 19.075L15.3334 21.4C15.0168 21.5833 14.6834 21.675 14.3334 21.675C13.9834 21.675 13.6501 21.5833 13.3334 21.4L9.33344 19.075C9.01677 18.8917 8.77094 18.65 8.59594 18.35C8.42094 18.05 8.33344 17.7167 8.33344 17.35V12.65C8.33344 12.2833 8.42094 11.95 8.59594 11.65C8.77094 11.35 9.01677 11.1083 9.33344 10.925L11.8334 9.45V13C11.8334 13.7 12.0751 14.2917 12.5584 14.775C13.0418 15.2583 13.6334 15.5 14.3334 15.5C15.0334 15.5 15.6251 15.2583 16.1084 14.775C16.5918 14.2917 16.8334 13.7 16.8334 13ZM15.3334 8V13C15.3334 13.2833 15.2376 13.5208 15.0459 13.7125C14.8543 13.9042 14.6168 14 14.3334 14C14.0501 14 13.8126 13.9042 13.6209 13.7125C13.4293 13.5208 13.3334 13.2833 13.3334 13V3C13.3334 2.71667 13.4293 2.47917 13.6209 2.2875C13.8126 2.09583 14.0501 2 14.3334 2H20.4584C20.8584 2 21.1584 2.175 21.3584 2.525C21.5584 2.875 21.5418 3.21667 21.3084 3.55L20.7084 4.45C20.5918 4.61667 20.5334 4.8 20.5334 5C20.5334 5.2 20.5918 5.38333 20.7084 5.55L21.3084 6.45C21.5418 6.78333 21.5584 7.125 21.3584 7.475C21.1584 7.825 20.8584 8 20.4584 8H15.3334Z" fill="#E8ECEF" fill-opacity="0.75"/>
</g>
</svg>
