<svg width="20" height="19" viewBox="0 0 20 19" fill="none" xmlns="http://www.w3.org/2000/svg">
<path fill-rule="evenodd" clip-rule="evenodd" d="M16.3334 9C16.3334 12.866 13.1994 16 9.33344 16C5.46744 16 2.33344 12.866 2.33344 9C2.33344 5.13401 5.46744 2 9.33344 2C13.1994 2 16.3334 5.13401 16.3334 9ZM16.3653 14.6177C17.597 13.078 18.3334 11.125 18.3334 9C18.3334 4.02944 14.304 0 9.33344 0C4.36287 0 0.333435 4.02944 0.333435 9C0.333435 13.9706 4.36287 18 9.33344 18C11.4584 18 13.4115 17.2635 14.9511 16.0319L17.6263 18.7071C18.0169 19.0976 18.65 19.0976 19.0405 18.7071C19.4311 18.3166 19.4311 17.6834 19.0405 17.2929L16.3653 14.6177Z" fill="#6F767E"/>
</svg>
