<svg width="25" height="24" viewBox="0 0 25 24" fill="none" xmlns="http://www.w3.org/2000/svg">
<path fill-rule="evenodd" clip-rule="evenodd" d="M12.8334 2C13.5228 2 14.147 2.27905 14.5993 2.73036C14.6168 2.74784 14.6341 2.76559 14.6511 2.78358C15.0508 3.20678 15.3044 3.76953 15.3311 4.39107L15.3319 4.41205C15.3329 4.44124 15.3334 4.47056 15.3334 4.5V4.51426C15.3334 4.55491 15.3581 4.59145 15.3957 4.60702C15.4332 4.62261 15.4765 4.61423 15.5053 4.58546L15.5154 4.57538C15.5362 4.55456 15.5573 4.53419 15.5786 4.51426L15.5941 4.5C16.0524 4.07934 16.6296 3.86073 17.2116 3.84417C17.2363 3.84346 17.2611 3.84312 17.2858 3.84315C17.9247 3.84382 18.5634 4.0879 19.0509 4.57538L19.758 5.28249C20.2455 5.76997 20.4896 6.40868 20.4903 7.0476C20.4903 7.07234 20.4899 7.09709 20.4892 7.12182C20.4727 7.70375 20.2541 8.281 19.8334 8.73935L19.8191 8.75476C19.7992 8.77611 19.7788 8.7972 19.758 8.81802L19.7479 8.82811C19.7192 8.85687 19.7108 8.90017 19.7264 8.93775C19.7419 8.97529 19.7785 9 19.8191 9H19.8334C19.8628 9 19.8922 9.00051 19.9213 9.00152L19.9423 9.00233C20.5639 9.02898 21.1266 9.28257 21.5498 9.68233C21.5678 9.69933 21.5856 9.71659 21.603 9.73411C22.0544 10.1864 22.3334 10.8106 22.3334 11.5V12.5C22.3334 13.1894 22.0544 13.8136 21.603 14.2659C21.5856 14.2834 21.5678 14.3007 21.5498 14.3177C21.1266 14.7174 20.5639 14.971 19.9423 14.9977L19.9213 14.9985C19.8922 14.9995 19.8628 15 19.8334 15H19.8191C19.7785 15 19.7419 15.0247 19.7264 15.0623C19.7108 15.0998 19.7192 15.1431 19.7479 15.1719L19.758 15.182C19.7788 15.2028 19.7992 15.2239 19.8191 15.2452L19.8334 15.2607C20.2541 15.719 20.4727 16.2962 20.4892 16.8782C20.4899 16.9029 20.4903 16.9277 20.4903 16.9524C20.4896 17.5913 20.2455 18.23 19.758 18.7175L19.0509 19.4246C18.5634 19.9121 17.9247 20.1562 17.2858 20.1568C17.2611 20.1569 17.2363 20.1565 17.2116 20.1558C16.6297 20.1393 16.0524 19.9207 15.5941 19.5L15.5786 19.4857C15.5573 19.4658 15.5362 19.4454 15.5154 19.4246L15.5053 19.4145C15.4765 19.3858 15.4332 19.3774 15.3957 19.393C15.3581 19.4085 15.3334 19.4451 15.3334 19.4857V19.5C15.3334 19.5294 15.3329 19.5588 15.3319 19.5879L15.3311 19.6089C15.3044 20.2305 15.0508 20.7932 14.6511 21.2164C14.6341 21.2344 14.6168 21.2522 14.5993 21.2696C14.147 21.7209 13.5228 22 12.8334 22H11.8334C11.144 22 10.5198 21.7209 10.0675 21.2696C10.05 21.2522 10.0328 21.2344 10.0158 21.2164C9.616 20.7932 9.36241 20.2305 9.33576 19.6089L9.33496 19.5879C9.33395 19.5588 9.33344 19.5294 9.33344 19.5V19.4857C9.33344 19.4451 9.30873 19.4085 9.27118 19.393C9.23361 19.3774 9.19031 19.3858 9.16154 19.4145L9.15145 19.4246C9.13063 19.4454 9.10955 19.4658 9.08819 19.4857L9.07277 19.5C8.61443 19.9207 8.03719 20.1393 7.45526 20.1558C7.43051 20.1565 7.40578 20.1569 7.38103 20.1568C6.74212 20.1562 6.1034 19.9121 5.61592 19.4246L4.90881 18.7175C4.42133 18.23 4.17725 17.5913 4.17658 16.9524C4.17655 16.9277 4.1769 16.9029 4.17761 16.8782C4.19417 16.2962 4.41278 15.719 4.83344 15.2607L4.84769 15.2452C4.86762 15.2239 4.888 15.2028 4.90881 15.182L4.9189 15.1719C4.94767 15.1431 4.95604 15.0998 4.94045 15.0623C4.92489 15.0247 4.88834 15 4.84769 15H4.83344C4.804 15 4.77468 14.9995 4.74548 14.9985L4.7245 14.9977C4.10296 14.971 3.54022 14.7174 3.11702 14.3177C3.09902 14.3007 3.08128 14.2834 3.0638 14.2659C2.61249 13.8136 2.33344 13.1894 2.33344 12.5V11.5C2.33344 10.8106 2.61249 10.1864 3.0638 9.73411C3.08128 9.71659 3.09902 9.69933 3.11702 9.68233C3.54022 9.28257 4.10296 9.02898 4.7245 9.00233L4.74548 9.00152C4.77468 9.00051 4.804 9 4.83344 9H4.84769C4.88834 9 4.92489 8.97529 4.94045 8.93775C4.95604 8.90017 4.94767 8.85687 4.9189 8.82811L4.90881 8.81802C4.888 8.7972 4.86762 8.77611 4.84769 8.75476L4.83344 8.73935C4.41278 8.281 4.19417 7.70375 4.17761 7.12182C4.1769 7.09709 4.17655 7.07234 4.17658 7.0476C4.17725 6.40868 4.42133 5.76997 4.90881 5.28249L5.61592 4.57538C6.1034 4.0879 6.74212 3.84382 7.38103 3.84315C7.40578 3.84312 7.43052 3.84346 7.45526 3.84417C8.03719 3.86073 8.61443 4.07934 9.07277 4.5L9.08819 4.51426C9.10954 4.53419 9.13063 4.55456 9.15145 4.57538L9.16154 4.58546C9.19031 4.61423 9.2336 4.62261 9.27118 4.60702C9.30872 4.59145 9.33344 4.55491 9.33344 4.51426V4.5C9.33344 4.47056 9.33395 4.44124 9.33496 4.41205L9.33576 4.39107C9.36241 3.76953 9.616 3.20678 10.0158 2.78358C10.0328 2.76559 10.05 2.74784 10.0675 2.73036C10.5198 2.27905 11.144 2 11.8334 2H12.8334ZM11.3334 19.5C11.3334 19.7761 11.5573 20 11.8334 20H12.8334C13.1095 20 13.3334 19.7761 13.3334 19.5V19.4857C13.3334 18.6262 13.8546 17.8669 14.6296 17.5455C15.4061 17.2235 16.3121 17.3929 16.9195 18.0003L16.9296 18.0104C17.1249 18.2057 17.4414 18.2057 17.6367 18.0104L18.3438 17.3033C18.5391 17.108 18.5391 16.7915 18.3438 16.5962L18.3337 16.5861C17.7263 15.9787 17.5569 15.0727 17.8789 14.2961C18.2003 13.5212 18.9596 13 19.8191 13H19.8334C20.1095 13 20.3334 12.7761 20.3334 12.5V11.5C20.3334 11.2239 20.1095 11 19.8334 11H19.8191C18.9596 11 18.2003 10.4788 17.8789 9.70385C17.5569 8.92727 17.7263 8.02132 18.3337 7.41389L18.3438 7.40381C18.5391 7.20854 18.5391 6.89196 18.3438 6.6967L17.6367 5.98959C17.4414 5.79433 17.1249 5.79433 16.9296 5.98959L16.9195 5.99968C16.3121 6.60711 15.4061 6.77651 14.6296 6.45448C13.8546 6.13311 13.3334 5.37381 13.3334 4.51426V4.5C13.3334 4.22386 13.1095 4 12.8334 4H11.8334C11.5573 4 11.3334 4.22386 11.3334 4.5V4.51426C11.3334 5.37381 10.8122 6.13311 10.0373 6.45448C9.26069 6.77651 8.35475 6.60711 7.74732 5.99968L7.73725 5.98959C7.54198 5.79433 7.2254 5.79433 7.03014 5.98959L6.32303 6.6967C6.12777 6.89196 6.12777 7.20854 6.32303 7.40381L6.33311 7.41389C6.94055 8.02132 7.10995 8.92727 6.78792 9.70385C6.46655 10.4788 5.70725 11 4.84769 11H4.83344C4.5573 11 4.33344 11.2239 4.33344 11.5V12.5C4.33344 12.7761 4.5573 13 4.83344 13H4.84769C5.70725 13 6.46655 13.5212 6.78791 14.2961C7.10995 15.0727 6.94055 15.9787 6.33312 16.5861L6.32303 16.5962C6.12777 16.7915 6.12777 17.108 6.32303 17.3033L7.03014 18.0104C7.2254 18.2057 7.54198 18.2057 7.73724 18.0104L7.74732 18.0003C8.35475 17.3929 9.2607 17.2235 10.0373 17.5455C10.8122 17.8669 11.3334 18.6262 11.3334 19.4857V19.5Z" fill="#E8ECEF" fill-opacity="0.75"/>
<path fill-rule="evenodd" clip-rule="evenodd" d="M12.3334 14C13.438 14 14.3334 13.1046 14.3334 12C14.3334 10.8954 13.438 10 12.3334 10C11.2288 10 10.3334 10.8954 10.3334 12C10.3334 13.1046 11.2288 14 12.3334 14ZM12.3334 16C14.5425 16 16.3334 14.2091 16.3334 12C16.3334 9.79086 14.5425 8 12.3334 8C10.1243 8 8.33344 9.79086 8.33344 12C8.33344 14.2091 10.1243 16 12.3334 16Z" fill="#E8ECEF" fill-opacity="0.75"/>
</svg>
