<svg width="33" height="34" viewBox="0 0 33 34" fill="none" xmlns="http://www.w3.org/2000/svg">
<path d="M16.6234 33.6066C14.4575 33.6066 12.4222 33.1691 10.5173 32.2941C8.61242 31.4191 6.95543 30.2316 5.54634 28.7316C4.13725 27.2316 3.02172 25.4678 2.19975 23.44C1.37778 21.4122 0.966797 19.2455 0.966797 16.94C0.966797 14.6344 1.37778 12.4678 2.19975 10.44C3.02172 8.4122 4.13725 6.64832 5.54634 5.14832C6.95543 3.64832 8.61242 2.46082 10.5173 1.58582C12.4222 0.710815 14.4575 0.273315 16.6234 0.273315H17.0148C17.354 0.273315 17.6345 0.391371 17.8563 0.627482C18.0781 0.863593 18.189 1.1622 18.189 1.52332V14.065C18.6587 14.3705 19.0371 14.7664 19.3241 15.2525C19.6112 15.7386 19.7547 16.3011 19.7547 16.94C19.7547 17.8566 19.4481 18.6414 18.8349 19.2941C18.2216 19.9469 17.4845 20.2733 16.6234 20.2733C15.7623 20.2733 15.0251 19.9469 14.4119 19.2941C13.7987 18.6414 13.492 17.8566 13.492 16.94C13.492 16.3011 13.6356 15.7316 13.9226 15.2316C14.2096 14.7316 14.588 14.3428 15.0577 14.065V10.4816C13.7008 10.8705 12.5787 11.6553 11.6915 12.8358C10.8043 14.0164 10.3607 15.3844 10.3607 16.94C10.3607 18.7733 10.974 20.3428 12.2004 21.6483C13.4268 22.9539 14.9011 23.6066 16.6234 23.6066C18.3456 23.6066 19.8199 22.9539 21.0463 21.6483C22.2728 20.3428 22.886 18.7733 22.886 16.94C22.886 16.3011 22.8012 15.6691 22.6316 15.0441C22.462 14.4191 22.2075 13.8289 21.8683 13.2733C21.6335 12.8844 21.5356 12.5025 21.5748 12.1275C21.6139 11.7525 21.7639 11.4261 22.0249 11.1483C22.338 10.815 22.7359 10.6483 23.2187 10.6483C23.7014 10.6483 24.0863 10.8705 24.3734 11.315C24.9474 12.2039 25.3649 13.1275 25.6259 14.0858C25.8868 15.0441 26.0173 15.9955 26.0173 16.94C26.0173 19.7178 25.104 22.0789 23.2774 24.0233C21.4508 25.9678 19.2328 26.94 16.6234 26.94C14.0139 26.94 11.7959 25.9678 9.96932 24.0233C8.14272 22.0789 7.22942 19.7178 7.22942 16.94C7.22942 14.44 7.97311 12.2664 9.46048 10.4191C10.9479 8.57193 12.8136 7.45387 15.0577 7.06498V3.68998C11.9525 4.10665 9.34958 5.56498 7.24899 8.06498C5.1484 10.565 4.09811 13.5233 4.09811 16.94C4.09811 20.6622 5.31149 23.815 7.73826 26.3983C10.165 28.9816 13.1267 30.2733 16.6234 30.2733C20.12 30.2733 23.0817 28.9816 25.5085 26.3983C27.9352 23.815 29.1486 20.6622 29.1486 16.94C29.1486 15.3011 28.9268 13.8289 28.4832 12.5233C28.0396 11.2178 27.4133 10.0094 26.6044 8.89832C26.3174 8.50943 26.1804 8.09276 26.1934 7.64832C26.2065 7.20387 26.3696 6.81498 26.6827 6.48165C26.9958 6.14832 27.3677 5.98165 27.7982 5.98165C28.2288 5.98165 28.5745 6.1622 28.8355 6.52332C29.9314 7.93998 30.7795 9.50943 31.3797 11.2316C31.9798 12.9539 32.2799 14.8566 32.2799 16.94C32.2799 19.2455 31.8689 21.4122 31.047 23.44C30.225 25.4678 29.1095 27.2316 27.7004 28.7316C26.2913 30.2316 24.6343 31.4191 22.7294 32.2941C20.8245 33.1691 18.7892 33.6066 16.6234 33.6066Z" fill="black"/>
</svg>
