<svg width="25" height="24" viewBox="0 0 25 24" fill="none" xmlns="http://www.w3.org/2000/svg">
<mask id="mask0_46_1669" style="mask-type:alpha" maskUnits="userSpaceOnUse" x="0" y="0" width="25" height="24">
<rect x="0.333435" width="24" height="24" fill="#D9D9D9"/>
</mask>
<g mask="url(#mask0_46_1669)">
<path d="M12.0834 19H11.8334C9.46677 19 7.45844 18.175 5.80844 16.525C4.15844 14.875 3.33344 12.8667 3.33344 10.5C3.33344 8.13333 4.15844 6.125 5.80844 4.475C7.45844 2.825 9.46677 2 11.8334 2C13.0168 2 14.1209 2.22083 15.1459 2.6625C16.1709 3.10417 17.0709 3.7125 17.8459 4.4875C18.6209 5.2625 19.2293 6.1625 19.6709 7.1875C20.1126 8.2125 20.3334 9.31667 20.3334 10.5C20.3334 12.7333 19.7043 14.8083 18.4459 16.725C17.1876 18.6417 15.6001 20.1417 13.6834 21.225C13.5168 21.3083 13.3501 21.3542 13.1834 21.3625C13.0168 21.3708 12.8668 21.3333 12.7334 21.25C12.6001 21.1667 12.4834 21.0583 12.3834 20.925C12.2834 20.7917 12.2251 20.6333 12.2084 20.45L12.0834 19ZM11.8084 15.975C12.0918 15.975 12.3334 15.875 12.5334 15.675C12.7334 15.475 12.8334 15.2333 12.8334 14.95C12.8334 14.6667 12.7334 14.425 12.5334 14.225C12.3334 14.025 12.0918 13.925 11.8084 13.925C11.5251 13.925 11.2834 14.025 11.0834 14.225C10.8834 14.425 10.7834 14.6667 10.7834 14.95C10.7834 15.2333 10.8834 15.475 11.0834 15.675C11.2834 15.875 11.5251 15.975 11.8084 15.975ZM9.63344 8.375C9.81677 8.45833 10.0001 8.4625 10.1834 8.3875C10.3668 8.3125 10.5168 8.19167 10.6334 8.025C10.7834 7.825 10.9584 7.67083 11.1584 7.5625C11.3584 7.45417 11.5834 7.4 11.8334 7.4C12.2334 7.4 12.5584 7.5125 12.8084 7.7375C13.0584 7.9625 13.1834 8.25 13.1834 8.6C13.1834 8.81667 13.1209 9.03333 12.9959 9.25C12.8709 9.46667 12.6501 9.73333 12.3334 10.05C11.9168 10.4167 11.6084 10.7625 11.4084 11.0875C11.2084 11.4125 11.1084 11.7417 11.1084 12.075C11.1084 12.275 11.1793 12.4458 11.3209 12.5875C11.4626 12.7292 11.6334 12.8 11.8334 12.8C12.0334 12.8 12.2001 12.725 12.3334 12.575C12.4668 12.425 12.5668 12.25 12.6334 12.05C12.7168 11.7667 12.8668 11.5083 13.0834 11.275C13.3001 11.0417 13.5001 10.8333 13.6834 10.65C14.0334 10.3 14.2959 9.95 14.4709 9.6C14.6459 9.25 14.7334 8.9 14.7334 8.55C14.7334 7.78333 14.4709 7.16667 13.9459 6.7C13.4209 6.23333 12.7168 6 11.8334 6C11.3001 6 10.8084 6.12917 10.3584 6.3875C9.90844 6.64583 9.54177 7 9.25844 7.45C9.15844 7.63333 9.14594 7.8125 9.22094 7.9875C9.29594 8.1625 9.43344 8.29167 9.63344 8.375Z" fill="#E8ECEF" fill-opacity="0.75"/>
</g>
</svg>
