<svg width="25" height="24" viewBox="0 0 25 24" fill="none" xmlns="http://www.w3.org/2000/svg">
<mask id="mask0_46_1660" style="mask-type:alpha" maskUnits="userSpaceOnUse" x="0" y="0" width="25" height="24">
<rect x="0.333435" width="24" height="24" fill="#D9D9D9"/>
</mask>
<g mask="url(#mask0_46_1660)">
<path d="M4.35844 18C4.64177 18 4.8751 18.0958 5.05844 18.2875C5.24177 18.4792 5.33344 18.7167 5.33344 19C5.33344 19.2833 5.23344 19.5208 5.03344 19.7125C4.83344 19.9042 4.59177 20 4.30844 20C4.0251 20 3.79177 19.9042 3.60844 19.7125C3.4251 19.5208 3.33344 19.2833 3.33344 19C3.33344 18.7167 3.43344 18.4792 3.63344 18.2875C3.83344 18.0958 4.0751 18 4.35844 18ZM8.35844 18C8.64177 18 8.8751 18.0958 9.05843 18.2875C9.24177 18.4792 9.33344 18.7167 9.33344 19C9.33344 19.2833 9.23344 19.5208 9.03344 19.7125C8.83344 19.9042 8.59177 20 8.30843 20C8.0251 20 7.79177 19.9042 7.60844 19.7125C7.4251 19.5208 7.33344 19.2833 7.33344 19C7.33344 18.7167 7.43344 18.4792 7.63344 18.2875C7.83344 18.0958 8.0751 18 8.35844 18ZM12.3334 18C12.6168 18 12.8543 18.0958 13.0459 18.2875C13.2376 18.4792 13.3334 18.7167 13.3334 19C13.3334 19.2833 13.2334 19.5208 13.0334 19.7125C12.8334 19.9042 12.5918 20 12.3084 20C12.0251 20 11.7918 19.9042 11.6084 19.7125C11.4251 19.5208 11.3334 19.2833 11.3334 19C11.3334 18.7167 11.4293 18.4792 11.6209 18.2875C11.8126 18.0958 12.0501 18 12.3334 18ZM16.3584 18C16.6418 18 16.8751 18.0958 17.0584 18.2875C17.2418 18.4792 17.3334 18.7167 17.3334 19C17.3334 19.2833 17.2376 19.5208 17.0459 19.7125C16.8543 19.9042 16.6168 20 16.3334 20C16.0501 20 15.8126 19.9042 15.6209 19.7125C15.4293 19.5208 15.3334 19.2833 15.3334 19C15.3334 18.7167 15.4334 18.4792 15.6334 18.2875C15.8334 18.0958 16.0751 18 16.3584 18ZM20.3334 18C20.6168 18 20.8543 18.0958 21.0459 18.2875C21.2376 18.4792 21.3334 18.7167 21.3334 19C21.3334 19.2833 21.2376 19.5208 21.0459 19.7125C20.8543 19.9042 20.6168 20 20.3334 20C20.0501 20 19.8126 19.9042 19.6209 19.7125C19.4293 19.5208 19.3334 19.2833 19.3334 19C19.3334 18.7167 19.4293 18.4792 19.6209 18.2875C19.8126 18.0958 20.0501 18 20.3334 18ZM7.35844 14C7.64177 14 7.8751 14.0958 8.05843 14.2875C8.24177 14.4792 8.33344 14.7167 8.33344 15C8.33344 15.2833 8.2376 15.5208 8.04594 15.7125C7.85427 15.9042 7.61677 16 7.33344 16H4.30844C4.0251 16 3.79177 15.9042 3.60844 15.7125C3.4251 15.5208 3.33344 15.2833 3.33344 15C3.33344 14.7167 3.42927 14.4792 3.62094 14.2875C3.8126 14.0958 4.0501 14 4.33344 14H7.35844ZM13.8584 14C14.1418 14 14.3751 14.0958 14.5584 14.2875C14.7418 14.4792 14.8334 14.7167 14.8334 15C14.8334 15.2833 14.7376 15.5208 14.5459 15.7125C14.3543 15.9042 14.1168 16 13.8334 16H10.8084C10.5251 16 10.2918 15.9042 10.1084 15.7125C9.9251 15.5208 9.83344 15.2833 9.83344 15C9.83344 14.7167 9.92927 14.4792 10.1209 14.2875C10.3126 14.0958 10.5501 14 10.8334 14H13.8584ZM20.3584 14C20.6418 14 20.8751 14.0958 21.0584 14.2875C21.2418 14.4792 21.3334 14.7167 21.3334 15C21.3334 15.2833 21.2376 15.5208 21.0459 15.7125C20.8543 15.9042 20.6168 16 20.3334 16H17.3084C17.0251 16 16.7918 15.9042 16.6084 15.7125C16.4251 15.5208 16.3334 15.2833 16.3334 15C16.3334 14.7167 16.4293 14.4792 16.6209 14.2875C16.8126 14.0958 17.0501 14 17.3334 14H20.3584ZM10.3584 10C10.6418 10 10.8751 10.0958 11.0584 10.2875C11.2418 10.4792 11.3334 10.7167 11.3334 11C11.3334 11.2833 11.2376 11.5208 11.0459 11.7125C10.8543 11.9042 10.6168 12 10.3334 12H4.30844C4.0251 12 3.79177 11.9042 3.60844 11.7125C3.4251 11.5208 3.33344 11.2833 3.33344 11C3.33344 10.7167 3.42927 10.4792 3.62094 10.2875C3.8126 10.0958 4.0501 10 4.33344 10H10.3584ZM20.3584 10C20.6418 10 20.8751 10.0958 21.0584 10.2875C21.2418 10.4792 21.3334 10.7167 21.3334 11C21.3334 11.2833 21.2376 11.5208 21.0459 11.7125C20.8543 11.9042 20.6168 12 20.3334 12H14.3084C14.0251 12 13.7918 11.9042 13.6084 11.7125C13.4251 11.5208 13.3334 11.2833 13.3334 11C13.3334 10.7167 13.4293 10.4792 13.6209 10.2875C13.8126 10.0958 14.0501 10 14.3334 10H20.3584ZM20.3334 4C20.6168 4 20.8543 4.09583 21.0459 4.2875C21.2376 4.47917 21.3334 4.71667 21.3334 5V7C21.3334 7.28333 21.2376 7.52083 21.0459 7.7125C20.8543 7.90417 20.6168 8 20.3334 8H4.33344C4.0501 8 3.8126 7.90417 3.62094 7.7125C3.42927 7.52083 3.33344 7.28333 3.33344 7V5C3.33344 4.71667 3.42927 4.47917 3.62094 4.2875C3.8126 4.09583 4.0501 4 4.33344 4H20.3334Z" fill="#E8ECEF" fill-opacity="0.75"/>
</g>
</svg>
