<svg width="33" height="34" viewBox="0 0 33 34" fill="none" xmlns="http://www.w3.org/2000/svg">
<path d="M16.0859 26.75C13.5809 26.6112 11.4672 25.5834 9.74501 23.6667C8.02278 21.75 7.16167 19.4445 7.16167 16.75C7.16167 13.9723 8.07497 11.6112 9.90157 9.66671C11.7282 7.72226 13.9462 6.75004 16.5556 6.75004C19.0868 6.75004 21.2526 7.66671 23.0531 9.50004C24.8536 11.3334 25.8191 13.5834 25.9496 16.25L22.6617 15.2084C22.3224 13.7084 21.5918 12.4792 20.4698 11.5209C19.3477 10.5625 18.043 10.0834 16.5556 10.0834C14.8334 10.0834 13.3591 10.7362 12.1326 12.0417C10.9062 13.3473 10.293 14.9167 10.293 16.75C10.293 18.3334 10.7431 19.7223 11.6434 20.9167C12.5436 22.1112 13.6983 22.8889 15.1074 23.25L16.0859 26.75ZM16.5556 33.4167C14.3898 33.4167 12.3544 32.9792 10.4496 32.1042C8.54467 31.2292 6.88768 30.0417 5.47859 28.5417C4.0695 27.0417 2.95397 25.2778 2.132 23.25C1.31003 21.2223 0.899048 19.0556 0.899048 16.75C0.899048 14.4445 1.31003 12.2778 2.132 10.25C2.95397 8.22226 4.0695 6.45837 5.47859 4.95837C6.88768 3.45837 8.54467 2.27087 10.4496 1.39587C12.3544 0.520874 14.3898 0.083374 16.5556 0.083374C18.7214 0.083374 20.7568 0.520874 22.6617 1.39587C24.5666 2.27087 26.2235 3.45837 27.6326 4.95837C29.0417 6.45837 30.1573 8.22226 30.9792 10.25C31.8012 12.2778 32.2122 14.4445 32.2122 16.75V17.5C32.2122 17.75 32.1861 18 32.1339 18.25L29.0809 17.25V16.75C29.0809 13.0278 27.8675 9.87504 25.4407 7.29171C23.0139 4.70837 20.0522 3.41671 16.5556 3.41671C13.059 3.41671 10.0973 4.70837 7.67051 7.29171C5.24374 9.87504 4.03036 13.0278 4.03036 16.75C4.03036 20.4723 5.24374 23.625 7.67051 26.2084C10.0973 28.7917 13.059 30.0834 16.5556 30.0834H17.0253L17.9647 33.3334C17.7299 33.3889 17.495 33.4167 17.2602 33.4167H16.5556ZM29.3549 33.6667L23.2097 27.125L22.0354 30.9167C21.9049 31.3056 21.657 31.4931 21.2917 31.4792C20.9264 31.4653 20.6785 31.2639 20.548 30.875L16.9862 18.25C16.8818 17.9445 16.947 17.6667 17.1819 17.4167C17.4167 17.1667 17.6777 17.0973 17.9647 17.2084L29.8246 21C30.1899 21.1389 30.3791 21.4028 30.3921 21.7917C30.4051 22.1806 30.229 22.4445 29.8637 22.5834L26.3018 23.8334L32.447 30.375C32.6036 30.5417 32.6819 30.7362 32.6819 30.9584C32.6819 31.1806 32.6036 31.375 32.447 31.5417L30.4508 33.6667C30.2942 33.8334 30.1116 33.9167 29.9028 33.9167C29.6941 33.9167 29.5114 33.8334 29.3549 33.6667Z" fill="black"/>
</svg>
