<svg width="17" height="16" viewBox="0 0 17 16" fill="none" xmlns="http://www.w3.org/2000/svg">
<path d="M11.8132 6.34033C12.0085 6.55323 12.325 6.55323 12.5203 6.34033C12.7156 6.12743 12.7156 5.78225 12.5203 5.56935L9.22741 1.97902C8.64162 1.34032 7.69187 1.34033 7.10609 1.97902L3.81319 5.56935C3.61793 5.78225 3.61793 6.12743 3.81319 6.34032C4.00846 6.55322 4.32504 6.55322 4.5203 6.34032L7.8132 2.75C8.00846 2.5371 8.32504 2.5371 8.5203 2.75L11.8132 6.34033Z" fill="#708090"/>
<path d="M4.5203 9.65968C4.32504 9.44678 4.00846 9.44678 3.8132 9.65968C3.61793 9.87257 3.61793 10.2178 3.8132 10.4307L7.10609 14.021C7.69188 14.6597 8.64162 14.6597 9.22741 14.021L12.5203 10.4307C12.7156 10.2178 12.7156 9.87258 12.5203 9.65968C12.325 9.44678 12.0085 9.44678 11.8132 9.65968L8.5203 13.25C8.32504 13.4629 8.00846 13.4629 7.8132 13.25L4.5203 9.65968Z" fill="#708090"/>
</svg>
