<svg width="25" height="24" viewBox="0 0 25 24" fill="none" xmlns="http://www.w3.org/2000/svg">
<mask id="mask0_46_1732" style="mask-type:alpha" maskUnits="userSpaceOnUse" x="0" y="0" width="25" height="24">
<rect x="0.462219" width="24" height="24" fill="#D9D9D9"/>
</mask>
<g mask="url(#mask0_46_1732)">
<path d="M11.7622 19.3C11.5789 19.1167 11.4831 18.8833 11.4747 18.6C11.4664 18.3167 11.5539 18.0833 11.7372 17.9L16.6372 13H5.46222C5.17889 13 4.94139 12.9042 4.74972 12.7125C4.55805 12.5208 4.46222 12.2833 4.46222 12C4.46222 11.7167 4.55805 11.4792 4.74972 11.2875C4.94139 11.0958 5.17889 11 5.46222 11H16.6372L11.7372 6.09999C11.5539 5.91665 11.4664 5.68332 11.4747 5.39999C11.4831 5.11665 11.5789 4.88332 11.7622 4.69999C11.9456 4.51665 12.1789 4.42499 12.4622 4.42499C12.7456 4.42499 12.9789 4.51665 13.1622 4.69999L19.7622 11.3C19.8622 11.3833 19.9331 11.4875 19.9747 11.6125C20.0164 11.7375 20.0372 11.8667 20.0372 12C20.0372 12.1333 20.0164 12.2583 19.9747 12.375C19.9331 12.4917 19.8622 12.6 19.7622 12.7L13.1622 19.3C12.9789 19.4833 12.7456 19.575 12.4622 19.575C12.1789 19.575 11.9456 19.4833 11.7622 19.3Z" fill="white"/>
</g>
</svg>
