<svg width="32" height="28" viewBox="0 0 32 28" fill="none" xmlns="http://www.w3.org/2000/svg">
<path d="M17.7399 17.3333H13.043C12.5993 17.3333 12.2275 17.493 11.9274 17.8125C11.6273 18.1319 11.4773 18.5277 11.4773 19C11.4773 19.4722 11.6273 19.868 11.9274 20.1875C12.2275 20.5069 12.5993 20.6666 13.043 20.6666H14.6086C14.6086 21.1388 14.7587 21.5347 15.0587 21.8541C15.3588 22.1736 15.7307 22.3333 16.1743 22.3333C16.5918 22.3333 16.8853 22.1319 17.0549 21.7291C17.2246 21.3263 17.4529 20.9722 17.7399 20.6666H19.3056C19.7492 20.6666 20.121 20.5069 20.4211 20.1875C20.7212 19.868 20.8712 19.4722 20.8712 19V14C20.8712 13.5277 20.7212 13.1319 20.4211 12.8125C20.121 12.493 19.7492 12.3333 19.3056 12.3333H14.6086V10.6666H19.3056C19.7492 10.6666 20.121 10.5069 20.4211 10.1875C20.7212 9.86801 20.8712 9.47218 20.8712 8.99996C20.8712 8.52774 20.7212 8.1319 20.4211 7.81246C20.121 7.49301 19.7492 7.33329 19.3056 7.33329H17.7399C17.7399 6.86107 17.5899 6.46524 17.2898 6.14579C16.9897 5.82635 16.6179 5.66663 16.1743 5.66663C15.7568 5.66663 15.4632 5.86801 15.2936 6.27079C15.124 6.67357 14.8956 7.02774 14.6086 7.33329H13.043C12.5993 7.33329 12.2275 7.49301 11.9274 7.81246C11.6273 8.1319 11.4773 8.52774 11.4773 8.99996V14C11.4773 14.4722 11.6273 14.868 11.9274 15.1875C12.2275 15.5069 12.5993 15.6666 13.043 15.6666H17.7399V17.3333ZM3.64901 27.3333C2.7879 27.3333 2.05074 27.0069 1.43752 26.3541C0.824308 25.7013 0.5177 24.9166 0.5177 24V3.99996C0.5177 3.08329 0.824308 2.29857 1.43752 1.64579C2.05074 0.993015 2.7879 0.666626 3.64901 0.666626H28.6995C29.5606 0.666626 30.2978 0.993015 30.911 1.64579C31.5242 2.29857 31.8308 3.08329 31.8308 3.99996V24C31.8308 24.9166 31.5242 25.7013 30.911 26.3541C30.2978 27.0069 29.5606 27.3333 28.6995 27.3333H3.64901Z" fill="black"/>
</svg>
