<svg width="25" height="24" viewBox="0 0 25 24" fill="none" xmlns="http://www.w3.org/2000/svg">
<mask id="mask0_46_1657" style="mask-type:alpha" maskUnits="userSpaceOnUse" x="0" y="0" width="25" height="24">
<rect x="0.333435" width="24" height="24" fill="#D9D9D9"/>
</mask>
<g mask="url(#mask0_46_1657)">
<path d="M6.33344 20C5.78344 20 5.3126 19.8042 4.92094 19.4125C4.52927 19.0208 4.33344 18.55 4.33344 18V9H8.33344V18C8.33344 18.55 8.1376 19.0208 7.74594 19.4125C7.35427 19.8042 6.88344 20 6.33344 20ZM4.33344 8V6C4.33344 5.45 4.52927 4.97917 4.92094 4.5875C5.3126 4.19583 5.78344 4 6.33344 4C6.88344 4 7.35427 4.19583 7.74594 4.5875C8.1376 4.97917 8.33344 5.45 8.33344 6V8H4.33344ZM12.3334 20C11.7834 20 11.3126 19.8042 10.9209 19.4125C10.5293 19.0208 10.3334 18.55 10.3334 18V12H14.3334V18C14.3334 18.55 14.1376 19.0208 13.7459 19.4125C13.3543 19.8042 12.8834 20 12.3334 20ZM10.3334 11V9C10.3334 8.45 10.5293 7.97917 10.9209 7.5875C11.3126 7.19583 11.7834 7 12.3334 7C12.8834 7 13.3543 7.19583 13.7459 7.5875C14.1376 7.97917 14.3334 8.45 14.3334 9V11H10.3334ZM18.3334 20C17.7834 20 17.3126 19.8042 16.9209 19.4125C16.5293 19.0208 16.3334 18.55 16.3334 18V15H20.3334V18C20.3334 18.55 20.1376 19.0208 19.7459 19.4125C19.3543 19.8042 18.8834 20 18.3334 20ZM16.3334 14V12C16.3334 11.45 16.5293 10.9792 16.9209 10.5875C17.3126 10.1958 17.7834 10 18.3334 10C18.8834 10 19.3543 10.1958 19.7459 10.5875C20.1376 10.9792 20.3334 11.45 20.3334 12V14H16.3334Z" fill="#E8ECEF" fill-opacity="0.75"/>
</g>
</svg>
