<svg width="33" height="32" viewBox="0 0 33 32" fill="none" xmlns="http://www.w3.org/2000/svg">
<mask id="mask0_46_1619" style="mask-type:alpha" maskUnits="userSpaceOnUse" x="0" y="0" width="33" height="32">
<rect x="0.462219" width="32" height="32" fill="#D9D9D9"/>
</mask>
<g mask="url(#mask0_46_1619)">
<path d="M25.6214 17.3334C25.2436 17.3334 24.927 17.2056 24.6714 16.95C24.4159 16.6945 24.2881 16.3778 24.2881 16C24.2881 15.6223 24.4159 15.3056 24.6714 15.05C24.927 14.7945 25.2436 14.6667 25.6214 14.6667H28.2881C28.6659 14.6667 28.9825 14.7945 29.2381 15.05C29.4936 15.3056 29.6214 15.6223 29.6214 16C29.6214 16.3778 29.4936 16.6945 29.2381 16.95C28.9825 17.2056 28.6659 17.3334 28.2881 17.3334H25.6214ZM24.8214 25.8667L22.6881 24.2667C22.377 24.0445 22.1992 23.7556 22.1547 23.4C22.1103 23.0445 22.1992 22.7111 22.4214 22.4C22.6436 22.0889 22.9325 21.9111 23.2881 21.8667C23.6436 21.8223 23.977 21.9111 24.2881 22.1334L26.4214 23.7334C26.7325 23.9556 26.9103 24.2445 26.9547 24.6C26.9992 24.9556 26.9103 25.2889 26.6881 25.6C26.4659 25.9111 26.177 26.0889 25.8214 26.1334C25.4659 26.1778 25.1325 26.0889 24.8214 25.8667ZM24.2881 9.8667C23.977 10.0889 23.6436 10.1778 23.2881 10.1334C22.9325 10.0889 22.6436 9.91115 22.4214 9.60004C22.1992 9.28892 22.1103 8.95559 22.1547 8.60004C22.1992 8.24448 22.377 7.95559 22.6881 7.73337L24.8214 6.13337C25.1325 5.91115 25.4659 5.82226 25.8214 5.8667C26.177 5.91115 26.4659 6.08892 26.6881 6.40004C26.9103 6.71115 26.9992 7.04448 26.9547 7.40004C26.9103 7.75559 26.7325 8.04448 26.4214 8.2667L24.2881 9.8667ZM6.95474 25.3334V20H5.62141C4.88808 20 4.2603 19.7389 3.73808 19.2167C3.21585 18.6945 2.95474 18.0667 2.95474 17.3334V14.6667C2.95474 13.9334 3.21585 13.3056 3.73808 12.7834C4.2603 12.2611 4.88808 12 5.62141 12H10.9547L15.5881 9.20004C16.0325 8.93337 16.4825 8.93337 16.9381 9.20004C17.3936 9.4667 17.6214 9.85559 17.6214 10.3667V21.6334C17.6214 22.1445 17.3936 22.5334 16.9381 22.8C16.4825 23.0667 16.0325 23.0667 15.5881 22.8L10.9547 20H9.62141V25.3334H6.95474ZM18.9547 20.4667V11.5334C19.5547 12.0667 20.0381 12.7167 20.4047 13.4834C20.7714 14.25 20.9547 15.0889 20.9547 16C20.9547 16.9111 20.7714 17.75 20.4047 18.5167C20.0381 19.2834 19.5547 19.9334 18.9547 20.4667Z" fill="#708090"/>
</g>
</svg>
