<svg width="27" height="26" viewBox="0 0 27 26" fill="none" xmlns="http://www.w3.org/2000/svg">
<path fill-rule="evenodd" clip-rule="evenodd" d="M2.33344 18.5959C2.33344 18.2151 2.48814 17.8506 2.76207 17.586L3.79103 16.5922C4.18272 16.2139 4.40321 15.6922 4.40157 15.1476L4.39211 11.9946C4.37887 7.58319 7.95132 4 12.3628 4C16.7648 4 20.3334 7.56859 20.3334 11.9707L20.3334 15.1716C20.3334 15.702 20.5441 16.2107 20.9192 16.5858L21.9192 17.5858C22.1844 17.851 22.3334 18.2107 22.3334 18.5858C22.3334 19.3668 21.7003 20 20.9192 20H16.3334C16.3334 22.2091 14.5426 24 12.3334 24C10.1243 24 8.33344 22.2091 8.33344 20H3.73751C2.96206 20 2.33344 19.3714 2.33344 18.5959ZM10.3334 20C10.3334 21.1046 11.2289 22 12.3334 22C13.438 22 14.3334 21.1046 14.3334 20H10.3334ZM18.3334 15.1716C18.3334 16.2324 18.7549 17.2499 19.505 18L5.21194 18C5.97566 17.246 6.40479 16.2161 6.40157 15.1416L6.3921 11.9886C6.38218 8.6841 9.05824 6 12.3628 6C15.6603 6 18.3334 8.67316 18.3334 11.9707L18.3334 15.1716Z" fill="#6F767E"/>
<rect x="13.3334" y="1" width="12" height="12" rx="6" fill="#FF6A55"/>
<rect x="13.3334" y="1" width="12" height="12" rx="6" stroke="#FCFCFC" stroke-width="2"/>
</svg>
