<svg width="25" height="24" viewBox="0 0 25 24" fill="none" xmlns="http://www.w3.org/2000/svg">
<mask id="mask0_46_1666" style="mask-type:alpha" maskUnits="userSpaceOnUse" x="0" y="0" width="25" height="24">
<rect x="0.333435" width="24" height="24" fill="#D9D9D9"/>
</mask>
<g mask="url(#mask0_46_1666)">
<path d="M19.6584 22C19.3168 22 19.0605 21.8833 18.8897 21.65C18.7188 21.4167 18.6834 21.125 18.7834 20.775C19.0334 19.9417 19.2084 19.1 19.3084 18.25C19.4084 17.4 19.4251 16.55 19.3584 15.7C18.6918 17.0333 17.7268 18.0875 16.4635 18.8625C15.2002 19.6375 13.8235 20.025 12.3334 20.025C10.9334 20.025 9.66676 19.6958 8.53342 19.0375C7.40009 18.3792 6.43342 17.5 5.63342 16.4C4.83342 15.3 4.21676 14.0375 3.78342 12.6125C3.35009 11.1875 3.13342 9.70833 3.13342 8.175C3.13342 7.275 3.18217 6.37652 3.27967 5.47955C3.37717 4.58258 3.55342 3.69773 3.80842 2.825C3.87581 2.59583 4.02182 2.40104 4.24647 2.24063C4.47111 2.08021 4.71676 2 4.98342 2C5.33342 2 5.59176 2.11667 5.75842 2.35C5.92509 2.58333 5.95842 2.875 5.85842 3.225C5.62509 4.05833 5.45842 4.89583 5.35842 5.7375C5.25842 6.57917 5.23342 7.43333 5.28342 8.3C5.96676 6.95 6.93856 5.89167 8.19885 5.125C9.45915 4.35833 10.8373 3.975 12.3334 3.975C13.7334 3.975 15.0001 4.3 16.1334 4.95C17.2668 5.6 18.2334 6.47083 19.0334 7.5625C19.8334 8.65417 20.4501 9.9125 20.8834 11.3375C21.3168 12.7625 21.5334 14.25 21.5334 15.8C21.5334 16.708 21.4829 17.6119 21.3817 18.5118C21.2806 19.4117 21.0979 20.2994 20.8334 21.175C20.7668 21.4083 20.6214 21.6042 20.3975 21.7625C20.1735 21.9208 19.9272 22 19.6584 22ZM12.3334 16.075C13.4668 16.075 14.4293 15.6792 15.2209 14.8875C16.0126 14.0958 16.4084 13.1333 16.4084 12C16.4084 10.8667 16.0126 9.90417 15.2209 9.1125C14.4293 8.32083 13.4668 7.925 12.3334 7.925C11.2001 7.925 10.2376 8.32083 9.44592 9.1125C8.65426 9.90417 8.25842 10.8667 8.25842 12C8.25842 13.1333 8.65426 14.0958 9.44592 14.8875C10.2376 15.6792 11.2001 16.075 12.3334 16.075ZM12.3334 13.975C11.8001 13.975 11.3376 13.7792 10.9459 13.3875C10.5543 12.9958 10.3584 12.5333 10.3584 12C10.3584 11.4667 10.5543 11.0042 10.9459 10.6125C11.3376 10.2208 11.8001 10.025 12.3334 10.025C12.8668 10.025 13.3293 10.2208 13.7209 10.6125C14.1126 11.0042 14.3084 11.4667 14.3084 12C14.3084 12.5333 14.1126 12.9958 13.7209 13.3875C13.3293 13.7792 12.8668 13.975 12.3334 13.975Z" fill="#E8ECEF" fill-opacity="0.75"/>
</g>
</svg>
