<svg width="20" height="22" viewBox="0 0 20 22" fill="none" xmlns="http://www.w3.org/2000/svg">
<path fill-rule="evenodd" clip-rule="evenodd" d="M18.6665 9.4043H0.842529C0.428529 9.4043 0.0925293 9.0683 0.0925293 8.6543C0.0925293 8.2403 0.428529 7.9043 0.842529 7.9043H18.6665C19.0805 7.9043 19.4165 8.2403 19.4165 8.6543C19.4165 9.0683 19.0805 9.4043 18.6665 9.4043" fill="#9A9AAB"/>
<path fill-rule="evenodd" clip-rule="evenodd" d="M14.2013 13.3096C13.7873 13.3096 13.4473 12.9736 13.4473 12.5596C13.4473 12.1456 13.7783 11.8096 14.1923 11.8096H14.2013C14.6153 11.8096 14.9513 12.1456 14.9513 12.5596C14.9513 12.9736 14.6153 13.3096 14.2013 13.3096" fill="#9A9AAB"/>
<path fill-rule="evenodd" clip-rule="evenodd" d="M9.76377 13.3096C9.34977 13.3096 9.00977 12.9736 9.00977 12.5596C9.00977 12.1456 9.34077 11.8096 9.75477 11.8096H9.76377C10.1778 11.8096 10.5138 12.1456 10.5138 12.5596C10.5138 12.9736 10.1778 13.3096 9.76377 13.3096" fill="#9A9AAB"/>
<path fill-rule="evenodd" clip-rule="evenodd" d="M5.31701 13.3096C4.90301 13.3096 4.56201 12.9736 4.56201 12.5596C4.56201 12.1456 4.89401 11.8096 5.30801 11.8096H5.31701C5.73101 11.8096 6.06701 12.1456 6.06701 12.5596C6.06701 12.9736 5.73101 13.3096 5.31701 13.3096" fill="#9A9AAB"/>
<path fill-rule="evenodd" clip-rule="evenodd" d="M14.2013 17.1963C13.7873 17.1963 13.4473 16.8603 13.4473 16.4463C13.4473 16.0323 13.7783 15.6963 14.1923 15.6963H14.2013C14.6153 15.6963 14.9513 16.0323 14.9513 16.4463C14.9513 16.8603 14.6153 17.1963 14.2013 17.1963" fill="#9A9AAB"/>
<path fill-rule="evenodd" clip-rule="evenodd" d="M9.76377 17.1963C9.34977 17.1963 9.00977 16.8603 9.00977 16.4463C9.00977 16.0323 9.34077 15.6963 9.75477 15.6963H9.76377C10.1778 15.6963 10.5138 16.0323 10.5138 16.4463C10.5138 16.8603 10.1778 17.1963 9.76377 17.1963" fill="#9A9AAB"/>
<path fill-rule="evenodd" clip-rule="evenodd" d="M5.31701 17.1963C4.90301 17.1963 4.56201 16.8603 4.56201 16.4463C4.56201 16.0323 4.89401 15.6963 5.30801 15.6963H5.31701C5.73101 15.6963 6.06701 16.0323 6.06701 16.4463C6.06701 16.8603 5.73101 17.1963 5.31701 17.1963" fill="#9A9AAB"/>
<path fill-rule="evenodd" clip-rule="evenodd" d="M13.7935 5.291C13.3795 5.291 13.0435 4.955 13.0435 4.541V1.25C13.0435 0.836 13.3795 0.5 13.7935 0.5C14.2075 0.5 14.5435 0.836 14.5435 1.25V4.541C14.5435 4.955 14.2075 5.291 13.7935 5.291" fill="#9A9AAB"/>
<path fill-rule="evenodd" clip-rule="evenodd" d="M5.71533 5.291C5.30133 5.291 4.96533 4.955 4.96533 4.541V1.25C4.96533 0.836 5.30133 0.5 5.71533 0.5C6.12933 0.5 6.46533 0.836 6.46533 1.25V4.541C6.46533 4.955 6.12933 5.291 5.71533 5.291" fill="#9A9AAB"/>
<mask id="mask0_635_1332" style="mask-type:luminance" maskUnits="userSpaceOnUse" x="0" y="2" width="20" height="20">
<path fill-rule="evenodd" clip-rule="evenodd" d="M0 2.0791H19.5V22H0V2.0791Z" fill="white"/>
</mask>
<g mask="url(#mask0_635_1332)">
<path fill-rule="evenodd" clip-rule="evenodd" d="M5.521 3.5791C2.928 3.5791 1.5 4.9621 1.5 7.4731V16.5221C1.5 19.0881 2.928 20.5001 5.521 20.5001H13.979C16.572 20.5001 18 19.1141 18 16.5981V7.4731C18.004 6.2381 17.672 5.2781 17.013 4.6181C16.335 3.9381 15.29 3.5791 13.988 3.5791H5.521ZM13.979 22.0001H5.521C2.116 22.0001 0 19.9011 0 16.5221V7.4731C0 4.1451 2.116 2.0791 5.521 2.0791H13.988C15.697 2.0791 17.11 2.5911 18.075 3.5581C19.012 4.4991 19.505 5.8521 19.5 7.4751V16.5981C19.5 19.9301 17.384 22.0001 13.979 22.0001V22.0001Z" fill="#9A9AAB"/>
</g>
</svg>
