<svg width="24" height="25" viewBox="0 0 24 25" fill="none" xmlns="http://www.w3.org/2000/svg">
<g clip-path="url(#clip0_99_1344)">
<mask id="mask0_99_1344" style="mask-type:alpha" maskUnits="userSpaceOnUse" x="0" y="0" width="25" height="25">
<path d="M24.3335 0.5H0.333496V24.5H24.3335V0.5Z" fill="#D9D9D9"/>
</mask>
<g mask="url(#mask0_99_1344)">
<path d="M19.2029 13.5001C18.9195 13.5001 18.682 13.4042 18.4904 13.2126C18.2987 13.0209 18.2029 12.7834 18.2029 12.5001C18.2029 12.2167 18.2987 11.9792 18.4904 11.7876C18.682 11.5959 18.9195 11.5001 19.2029 11.5001H21.2029C21.4862 11.5001 21.7237 11.5959 21.9154 11.7876C22.107 11.9792 22.2029 12.2167 22.2029 12.5001C22.2029 12.7834 22.107 13.0209 21.9154 13.2126C21.7237 13.4042 21.4862 13.5001 21.2029 13.5001H19.2029ZM18.6029 19.9001L17.0029 18.7001C16.7695 18.5334 16.6362 18.3167 16.6029 18.0501C16.5695 17.7834 16.6362 17.5334 16.8029 17.3001C16.9695 17.0667 17.1862 16.9334 17.4529 16.9001C17.7195 16.8667 17.9695 16.9334 18.2029 17.1001L19.8029 18.3001C20.0362 18.4667 20.1695 18.6834 20.2029 18.9501C20.2362 19.2167 20.1695 19.4667 20.0029 19.7001C19.8362 19.9334 19.6195 20.0667 19.3529 20.1001C19.0862 20.1334 18.8362 20.0667 18.6029 19.9001ZM18.2029 7.90006C17.9695 8.06672 17.7195 8.13339 17.4529 8.10006C17.1862 8.06672 16.9695 7.93339 16.8029 7.70006C16.6362 7.46672 16.5695 7.21672 16.6029 6.95006C16.6362 6.68339 16.7695 6.46672 17.0029 6.30006L18.6029 5.10006C18.8362 4.93339 19.0862 4.86672 19.3529 4.90006C19.6195 4.93339 19.8362 5.06672 20.0029 5.30006C20.1695 5.53339 20.2362 5.78339 20.2029 6.05006C20.1695 6.31672 20.0362 6.53339 19.8029 6.70006L18.2029 7.90006ZM5.20288 19.5001V15.5001H4.20288C3.65288 15.5001 3.18205 15.3042 2.79038 14.9126C2.39871 14.5209 2.20288 14.0501 2.20288 13.5001V11.5001C2.20288 10.9501 2.39871 10.4792 2.79038 10.0876C3.18205 9.69589 3.65288 9.50006 4.20288 9.50006H8.20288L11.6779 7.40006C12.0112 7.20006 12.3487 7.20006 12.6904 7.40006C13.032 7.60006 13.2029 7.89172 13.2029 8.27506V16.7251C13.2029 17.1084 13.032 17.4001 12.6904 17.6001C12.3487 17.8001 12.0112 17.8001 11.6779 17.6001L8.20288 15.5001H7.20288V19.5001H5.20288ZM14.2029 15.8501V9.15006C14.6529 9.55006 15.0154 10.0376 15.2904 10.6126C15.5654 11.1876 15.7029 11.8167 15.7029 12.5001C15.7029 13.1834 15.5654 13.8126 15.2904 14.3876C15.0154 14.9626 14.6529 15.4501 14.2029 15.8501Z" fill="#84818A"/>
</g>
</g>
<defs>
<clipPath id="clip0_99_1344">
<rect width="24" height="24" fill="white" transform="translate(0 0.5)"/>
</clipPath>
</defs>
</svg>
