<svg width="24" height="25" viewBox="0 0 24 25" fill="none" xmlns="http://www.w3.org/2000/svg">
<path d="M18 6.5H14.41L16.71 4.21C16.8032 4.11676 16.8772 4.00607 16.9277 3.88425C16.9781 3.76243 17.0041 3.63186 17.0041 3.5C17.0041 3.36814 16.9781 3.23758 16.9277 3.11575C16.8772 2.99393 16.8032 2.88324 16.71 2.79C16.6168 2.69676 16.5061 2.6228 16.3842 2.57234C16.2624 2.52188 16.1319 2.49591 16 2.49591C15.7337 2.49591 15.4783 2.6017 15.29 2.79L12 6.04L10.83 4.04C10.7643 3.92575 10.6768 3.82555 10.5724 3.74513C10.468 3.6647 10.3488 3.60562 10.2216 3.57127C10.0944 3.53691 9.96168 3.52794 9.83099 3.54489C9.70031 3.56183 9.57425 3.60434 9.46 3.67C9.34575 3.73566 9.24555 3.82318 9.16513 3.92757C9.0847 4.03195 9.02562 4.15116 8.99126 4.27837C8.95691 4.40559 8.94794 4.53833 8.96488 4.66901C8.98182 4.79969 9.02434 4.92575 9.09 5.04L10 6.5H6C5.20435 6.5 4.44129 6.81607 3.87868 7.37868C3.31607 7.94129 3 8.70435 3 9.5V17.5C3 18.2957 3.31607 19.0587 3.87868 19.6213C4.44129 20.1839 5.20435 20.5 6 20.5V21.5C6 21.7652 6.10536 22.0196 6.29289 22.2071C6.48043 22.3946 6.73478 22.5 7 22.5C7.26522 22.5 7.51957 22.3946 7.70711 22.2071C7.89464 22.0196 8 21.7652 8 21.5V20.5H16V21.5C16 21.7652 16.1054 22.0196 16.2929 22.2071C16.4804 22.3946 16.7348 22.5 17 22.5C17.2652 22.5 17.5196 22.3946 17.7071 22.2071C17.8946 22.0196 18 21.7652 18 21.5V20.5C18.7956 20.5 19.5587 20.1839 20.1213 19.6213C20.6839 19.0587 21 18.2957 21 17.5V9.5C21 8.70435 20.6839 7.94129 20.1213 7.37868C19.5587 6.81607 18.7956 6.5 18 6.5ZM19 17.5C19 17.7652 18.8946 18.0196 18.7071 18.2071C18.5196 18.3946 18.2652 18.5 18 18.5H6C5.73478 18.5 5.48043 18.3946 5.29289 18.2071C5.10536 18.0196 5 17.7652 5 17.5V9.5C5 9.23479 5.10536 8.98043 5.29289 8.7929C5.48043 8.60536 5.73478 8.5 6 8.5H18C18.2652 8.5 18.5196 8.60536 18.7071 8.7929C18.8946 8.98043 19 9.23479 19 9.5V17.5Z" fill="#84818A"/>
</svg>
